<svg width="385" height="390" viewBox="0 0 385 390" fill="none" xmlns="http://www.w3.org/2000/svg">
<path fill-rule="evenodd" clip-rule="evenodd" d="M192.2 107.561L192.462 106.674C199.104 84.1444 222.753 71.2653 245.283 77.9079C267.813 84.5506 280.692 108.2 274.049 130.729L265.828 158.614C275.601 161.621 283.302 168.463 287.63 177.082C291.518 176.921 295.499 177.384 299.436 178.545C318.731 184.233 329.76 204.486 324.072 223.781L315.019 254.485C311.855 265.216 304.194 273.374 294.714 277.537C294.704 277.593 294.695 277.65 294.685 277.706C286.809 323.486 240.565 351.66 193.574 343.575C188.742 342.744 184.056 341.562 179.543 340.06C163.028 343.28 145.21 338.816 131.939 326.422C130.241 324.836 128.663 323.162 127.207 321.412C127.095 321.276 126.982 321.14 126.87 321.002L126.852 320.98L126.849 320.976L126.846 320.973C126.682 320.771 126.519 320.568 126.358 320.365L126.354 320.36L126.314 320.309L126.309 320.303L126.302 320.294L126.297 320.287L126.295 320.285L126.294 320.284L126.292 320.281L126.292 320.28L126.291 320.279L126.289 320.277L126.281 320.267C126.117 320.059 125.954 319.849 125.794 319.638L125.303 318.985C125.098 318.708 124.895 318.429 124.697 318.15L124.695 318.147L124.691 318.141L124.684 318.132L124.682 318.13C124.662 318.101 124.642 318.072 124.621 318.043L124.608 318.048L124.565 317.963C121.436 313.522 119.045 308.71 117.397 303.707L108.737 286.482C95.5711 260.294 102.181 228.486 124.692 209.713C126.398 208.29 128.177 206.959 130.019 205.727L107.302 134.51C100.164 112.132 112.518 88.205 134.896 81.0668C157.273 73.9289 181.199 86.2818 188.338 108.658L188.339 108.66L190.834 116.477L192.2 107.561ZM196.216 171.84C196.048 172.942 194.508 173.063 194.17 172.001L175.28 112.826C170.443 97.6604 154.227 89.288 139.061 94.1256C123.896 98.9632 115.523 115.179 120.361 130.345L146.52 212.351L144.412 213.324C140.477 215.139 136.799 217.464 133.471 220.239C115.853 234.933 110.679 259.828 120.984 280.325L130.133 298.522C131.269 302.263 132.953 305.867 135.181 309.209C135.401 309.54 135.627 309.868 135.858 310.193L135.869 310.208C136.017 310.417 136.168 310.625 136.322 310.832L136.854 311.891C136.797 311.701 136.742 311.511 136.688 311.32C136.809 311.478 136.93 311.635 137.053 311.791L137.076 311.82L137.11 311.863C137.231 312.016 137.353 312.168 137.476 312.319L137.493 312.34C137.525 312.379 137.557 312.418 137.588 312.457C137.641 312.52 137.693 312.584 137.746 312.647C137.787 312.696 137.827 312.745 137.868 312.794C138.923 314.05 140.066 315.256 141.295 316.404C152.138 326.531 167.042 329.594 180.337 325.786C185.26 327.683 190.464 329.132 195.898 330.067C236.595 337.069 274.776 312.585 281.177 275.382C281.67 272.515 281.96 269.658 282.057 266.82C291.092 266.03 299.151 259.834 301.871 250.609L310.924 219.904C314.472 207.871 307.593 195.24 295.56 191.692C294.182 191.286 292.795 191.016 291.416 190.875C286.584 190.383 281.835 191.471 277.793 193.8C277.88 188.951 276.402 184.308 273.743 180.471C270.96 176.455 266.883 173.323 261.951 171.764C261.311 171.561 260.658 171.386 259.99 171.238C255.715 170.29 251.453 170.615 247.602 171.961L260.902 126.853C265.404 111.584 256.675 95.5572 241.407 91.0554C226.138 86.5537 210.111 95.2819 205.609 110.551L196.216 171.84Z" fill="#292929"/>
<path fill-rule="evenodd" clip-rule="evenodd" d="M186.929 92.8L187.19 91.9135C193.833 69.3838 217.481 56.5047 240.011 63.1473C262.541 69.79 275.42 93.4389 268.777 115.969L260.556 143.853C270.329 146.86 278.03 153.702 282.358 162.322C286.246 162.16 290.227 162.623 294.164 163.784C313.459 169.473 324.488 189.726 318.8 209.02L309.747 239.724C306.583 250.455 298.922 258.614 289.442 262.777C289.432 262.833 289.423 262.889 289.413 262.945C281.537 308.725 235.293 336.9 188.302 328.815C183.47 327.984 178.784 326.801 174.271 325.299C157.756 328.519 139.938 324.056 126.667 311.661C124.969 310.075 123.391 308.401 121.935 306.651C121.823 306.516 121.71 306.379 121.598 306.242L121.58 306.22L121.577 306.216L121.574 306.212C121.41 306.01 121.247 305.807 121.086 305.604L121.082 305.599L121.042 305.548L121.037 305.542L121.03 305.533L121.025 305.526L121.023 305.524L121.022 305.523L121.02 305.521L121.02 305.52L121.019 305.519L121.017 305.516L121.009 305.507C120.845 305.298 120.682 305.088 120.522 304.878L120.031 304.225C119.826 303.947 119.623 303.668 119.425 303.389L119.423 303.386L119.419 303.381L119.412 303.371L119.411 303.369C119.39 303.34 119.37 303.311 119.349 303.282L119.336 303.288L119.293 303.202C116.164 298.762 113.773 293.95 112.125 288.946L103.465 271.721C90.2992 245.533 96.9094 213.726 119.42 194.952C121.126 193.529 122.905 192.199 124.747 190.966L102.03 119.749C94.8921 97.3718 107.246 73.4444 129.624 66.3062C152.001 59.1683 175.927 71.5211 183.066 93.8972L183.067 93.8998L185.562 101.716L186.929 92.8ZM190.944 157.08C190.776 158.181 189.236 158.302 188.898 157.241L170.008 98.0654C165.171 82.8998 148.955 74.5274 133.789 79.365C118.624 84.2026 110.251 100.418 115.089 115.584L141.248 197.591L139.14 198.563C135.205 200.378 131.527 202.703 128.199 205.479C110.581 220.172 105.407 245.067 115.712 265.564L124.861 283.761C125.997 287.502 127.681 291.107 129.909 294.448C130.129 294.779 130.355 295.107 130.586 295.432L130.597 295.447C130.746 295.656 130.896 295.865 131.05 296.072L131.582 297.131C131.526 296.94 131.47 296.75 131.416 296.56C131.537 296.717 131.658 296.874 131.781 297.03L131.804 297.059L131.838 297.103C131.959 297.255 132.081 297.407 132.204 297.558L132.221 297.58C132.253 297.619 132.285 297.657 132.316 297.696C132.369 297.76 132.421 297.823 132.474 297.886C132.515 297.935 132.555 297.984 132.596 298.033C133.651 299.289 134.794 300.496 136.023 301.644C146.866 311.77 161.77 314.833 175.065 311.025C179.988 312.923 185.192 314.371 190.626 315.306C231.323 322.308 269.504 297.825 275.905 260.621C276.398 257.755 276.688 254.897 276.785 252.06C285.82 251.269 293.879 245.074 296.599 235.848L305.652 205.144C309.2 193.11 302.321 180.479 290.288 176.931C288.91 176.525 287.523 176.256 286.144 176.115C281.312 175.622 276.563 176.71 272.521 179.039C272.608 174.191 271.13 169.547 268.471 165.71C265.688 161.695 261.611 158.563 256.679 157.003C256.039 156.801 255.386 156.625 254.718 156.477C250.443 155.53 246.182 155.855 242.33 157.201L255.63 112.092C260.132 96.8237 251.403 80.7966 236.135 76.2948C220.866 71.793 204.839 80.5213 200.337 95.7899L190.944 157.08Z" fill="#FFB783"/>
<path fill-rule="evenodd" clip-rule="evenodd" d="M181.574 89.9091C173.009 70.0835 150.633 59.6037 129.624 66.3054C107.246 73.4436 94.892 97.371 102.03 119.749L124.747 190.965C122.905 192.198 121.126 193.528 119.42 194.951C96.9094 213.725 90.2991 245.532 103.465 271.721L112.125 288.945C113.773 293.949 116.164 298.761 119.293 303.202L119.336 303.287L119.349 303.281L119.41 303.368L119.419 303.38L119.423 303.385L119.425 303.388C119.623 303.668 119.825 303.946 120.031 304.224L120.522 304.877C120.682 305.087 120.845 305.297 121.009 305.506L121.019 305.518L121.02 305.52L121.022 305.522L121.025 305.525L121.03 305.532L121.037 305.541L121.042 305.548L121.082 305.598L121.086 305.603C121.247 305.807 121.41 306.01 121.574 306.212L121.577 306.215L121.598 306.241C121.71 306.378 121.822 306.515 121.935 306.651C123.391 308.401 124.969 310.075 126.667 311.661C139.938 324.055 157.756 328.518 174.271 325.299C178.784 326.801 183.47 327.983 188.301 328.814C235.293 336.899 281.537 308.724 289.413 262.944L289.442 262.776C298.922 258.613 306.583 250.454 309.747 239.724L318.8 209.019C324.488 189.725 313.459 169.472 294.164 163.783C290.227 162.622 286.246 162.16 282.358 162.321C278.03 153.701 270.329 146.859 260.556 143.852L268.777 115.968C275.42 93.4381 262.541 69.7892 240.011 63.1465C218.231 56.7249 195.405 68.5477 187.909 89.6966C187.651 90.4244 187.411 91.1633 187.19 91.9128L186.928 92.7992L185.562 101.715L183.066 93.8964C182.874 93.2948 182.67 92.7005 182.454 92.1135C182.367 91.8747 182.277 91.637 182.185 91.4006C182.042 91.033 181.895 90.6684 181.743 90.3069C181.687 90.1739 181.631 90.0413 181.574 89.9091ZM184.495 82.4872C194.72 61.6968 218.718 50.6605 241.695 57.435C267.379 65.0077 282.062 91.9677 274.489 117.652L267.816 140.285C275.409 143.841 281.611 149.51 285.855 156.382C289.176 156.54 292.528 157.093 295.848 158.072C318.297 164.69 331.13 188.254 324.511 210.703L315.458 241.408C312.106 252.778 304.406 261.669 294.738 266.82C284.825 314.625 236.026 343.067 187.292 334.682C182.685 333.89 178.201 332.796 173.859 331.425C155.994 334.426 136.914 329.379 122.603 316.012C120.727 314.261 118.983 312.411 117.372 310.476L116.465 310.836L114.165 306.26C110.908 301.561 108.388 296.496 106.612 291.237L98.1453 274.395C83.736 245.735 90.9704 210.924 115.606 190.378C116.313 189.789 117.031 189.214 117.76 188.654L96.3572 121.558C88.2196 96.0475 102.303 68.7701 127.814 60.6325C149.911 53.5839 173.333 63.207 184.495 82.4872ZM164.335 99.8742C160.497 87.8418 147.631 81.199 135.599 85.0372C123.567 88.8754 116.924 101.741 120.762 113.774L148.52 200.793L141.634 203.97C138.174 205.566 134.939 207.61 132.013 210.051C116.52 222.972 111.97 244.864 121.032 262.889L130.41 281.542L130.558 282.03C131.528 285.222 132.964 288.296 134.864 291.145C135.051 291.427 135.244 291.706 135.441 291.984L135.45 291.996C135.45 291.997 135.451 291.997 135.451 291.998C135.578 292.176 135.706 292.353 135.836 292.529L136.14 292.94L136.144 292.948L136.149 292.945C136.252 293.08 136.356 293.214 136.461 293.347L136.477 293.367L136.482 293.374L136.509 293.409C136.51 293.41 136.511 293.41 136.511 293.411C136.613 293.54 136.717 293.669 136.821 293.798L136.836 293.816L136.84 293.82L136.917 293.914C136.961 293.969 137.007 294.024 137.052 294.078L137.156 294.203C137.156 294.203 137.157 294.203 137.156 294.203C138.057 295.276 139.034 296.308 140.087 297.291C149.339 305.932 162.057 308.556 173.425 305.3L175.344 304.75L177.206 305.468C181.764 307.225 186.589 308.569 191.635 309.437C229.598 315.969 264.276 293.089 270.036 259.611C270.483 257.012 270.746 254.424 270.833 251.856L271.013 246.586L276.266 246.127C282.944 245.543 288.883 240.961 290.888 234.163L299.941 203.459C302.558 194.58 297.483 185.26 288.604 182.642C287.58 182.34 286.555 182.141 285.54 182.038C281.988 181.676 278.486 182.474 275.494 184.198L266.378 189.45L266.567 178.931C266.631 175.367 265.546 171.942 263.577 169.101C261.518 166.132 258.514 163.828 254.883 162.68C254.411 162.53 253.926 162.4 253.43 162.29C250.266 161.589 247.131 161.83 244.295 162.821L233.336 166.651L249.918 110.408C253.49 98.2933 246.565 85.5773 234.451 82.0056C222.458 78.4696 209.875 85.2212 206.159 97.1107L196.83 157.981C195.708 165.301 185.477 166.106 183.225 159.051L164.335 99.8742ZM200.337 95.7892C204.839 80.5205 220.866 71.7923 236.135 76.294C251.403 80.7958 260.132 96.8229 255.63 112.092L242.33 157.2C244.422 156.469 246.636 156.039 248.907 155.951C250.816 155.876 252.765 156.044 254.718 156.476C255.386 156.624 256.039 156.8 256.679 157.002C261.611 158.562 265.688 161.694 268.471 165.709C269.946 167.838 271.058 170.215 271.741 172.738C272.288 174.762 272.56 176.88 272.521 179.038C274.358 177.98 276.341 177.178 278.411 176.664C280.897 176.047 283.508 175.845 286.144 176.114C287.523 176.255 288.91 176.524 290.288 176.931C302.321 180.479 309.2 193.11 305.652 205.143L296.599 235.847C293.879 245.073 285.82 251.269 276.785 252.059C276.688 254.896 276.398 257.754 275.904 260.62C269.504 297.824 231.323 322.307 190.626 315.306C185.192 314.371 179.988 312.922 175.065 311.024C161.77 314.832 146.866 311.77 136.023 301.643C134.793 300.495 133.651 299.289 132.596 298.032L132.474 297.886C132.421 297.822 132.369 297.759 132.316 297.695L132.221 297.579L132.204 297.557C132.182 297.53 132.16 297.503 132.138 297.476C132.089 297.416 132.04 297.355 131.991 297.294C131.94 297.23 131.889 297.166 131.838 297.102L131.804 297.058L131.781 297.03C131.658 296.873 131.537 296.716 131.416 296.559C131.47 296.749 131.525 296.94 131.582 297.13L131.05 296.071C130.946 295.931 130.844 295.791 130.743 295.651C130.694 295.583 130.645 295.515 130.597 295.446L130.586 295.432C130.355 295.106 130.129 294.778 129.909 294.448C127.681 291.106 125.997 287.501 124.861 283.761L115.712 265.564C105.407 245.067 110.581 220.172 128.199 205.478C131.527 202.703 135.205 200.377 139.14 198.563L141.248 197.59L115.089 115.583C110.251 100.418 118.624 84.2018 133.789 79.3642C148.955 74.5266 165.171 82.8991 170.008 98.0646L188.898 157.24C189.236 158.301 190.775 158.18 190.944 157.079L200.337 95.7892Z" fill="#292929"/>
<path fill-rule="evenodd" clip-rule="evenodd" d="M200.337 95.7896C204.839 80.521 220.866 71.7927 236.135 76.2945C251.403 80.7963 260.132 96.8233 255.63 112.092L233.646 186.654C263.093 200.012 281.199 229.848 275.904 260.621C269.503 297.824 231.323 322.308 190.626 315.306C149.928 308.304 122.126 272.468 128.527 235.264C130.564 223.42 135.823 212.866 143.358 204.206L115.089 115.584C110.251 100.418 118.624 84.2023 133.789 79.3647C148.955 74.527 165.171 82.8995 170.008 98.0651L188.897 157.24C189.236 158.302 190.775 158.181 190.944 157.079L200.337 95.7896Z" fill="#EDA673"/>
<path fill-rule="evenodd" clip-rule="evenodd" d="M233.646 186.654L255.63 112.092C260.132 96.8233 251.403 80.7963 236.135 76.2945C220.866 71.7927 204.839 80.521 200.337 95.7896L190.944 157.079C190.775 158.181 189.236 158.302 188.897 157.24L170.008 98.0651C165.171 82.8995 148.955 74.527 133.789 79.3647C118.624 84.2023 110.251 100.418 115.089 115.584L143.358 204.206C135.823 212.866 130.564 223.42 128.527 235.264C122.126 272.468 149.928 308.304 190.626 315.306C231.323 322.308 269.503 297.824 275.904 260.621C281.199 229.848 263.093 200.012 233.646 186.654ZM196.933 154.675L196.93 154.665C196.931 154.668 196.932 154.672 196.933 154.675ZM208.581 97.6776L199.282 158.357C197.763 168.268 183.911 169.358 180.862 159.805L161.972 100.628C158.55 89.9012 147.08 83.9789 136.353 87.4008C125.625 90.8227 119.703 102.293 123.125 113.02L152.836 206.163L149.722 209.742C143.149 217.296 138.603 226.447 136.84 236.695C131.347 268.621 155.232 300.657 192.056 306.993C228.88 313.329 262.098 291.117 267.591 259.19C272.142 232.739 256.637 206.346 230.161 194.335L223.481 191.305L247.539 109.706C250.723 98.9063 244.549 87.5696 233.749 84.3852C223.116 81.2502 211.963 87.1862 208.581 97.6776Z" fill="#292929"/>
<path d="M262.076 192.294C265.623 180.261 278.254 173.382 290.288 176.93C302.321 180.478 309.2 193.109 305.652 205.142L296.599 235.846C293.051 247.88 280.42 254.758 268.387 251.211C256.354 247.663 249.475 235.032 253.023 222.998L262.076 192.294Z" fill="#FFB783"/>
<path fill-rule="evenodd" clip-rule="evenodd" d="M288.508 233.461L297.561 202.757C299.791 195.192 295.467 187.251 287.902 185.021C280.337 182.79 272.397 187.115 270.166 194.68L261.113 225.384C258.883 232.949 263.207 240.889 270.772 243.12C278.337 245.35 286.278 241.026 288.508 233.461ZM290.288 176.93C278.254 173.382 265.623 180.261 262.076 192.294L253.023 222.998C249.475 235.032 256.354 247.663 268.387 251.211C280.42 254.758 293.051 247.88 296.599 235.846L305.652 205.142C309.2 193.109 302.321 180.478 290.288 176.93Z" fill="#292929"/>
<path d="M227.627 173.74C230.341 161.491 242.47 153.762 254.718 156.476C266.967 159.19 274.696 171.319 271.982 183.568L265.057 214.821C262.343 227.069 250.214 234.798 237.965 232.084C225.717 229.37 217.988 217.241 220.702 204.993L227.627 173.74Z" fill="#FFB783"/>
<path fill-rule="evenodd" clip-rule="evenodd" d="M256.822 212.996L263.747 181.743C265.453 174.043 260.594 166.418 252.894 164.711C245.194 163.005 237.568 167.864 235.862 175.564L228.937 206.817C227.231 214.518 232.09 222.143 239.79 223.849C247.49 225.555 255.115 220.696 256.822 212.996ZM254.718 156.476C242.47 153.762 230.341 161.491 227.627 173.74L220.702 204.993C217.988 217.241 225.717 229.37 237.965 232.084C250.214 234.798 262.343 227.069 265.057 214.821L271.982 183.568C274.696 171.319 266.967 159.19 254.718 156.476Z" fill="#292929"/>
<path fill-rule="evenodd" clip-rule="evenodd" d="M205.964 194.091C199.302 182.276 184.688 177.553 172.372 183.234L139.14 198.563C135.205 200.378 131.526 202.703 128.199 205.478C110.58 220.172 105.407 245.067 115.712 265.564L124.86 283.761C126.183 288.115 128.249 292.286 131.049 296.071L131.582 297.13C131.525 296.94 131.47 296.749 131.416 296.559C132.784 298.351 134.32 300.053 136.023 301.643C152.457 316.992 178.223 316.112 193.572 299.678L194.256 298.946C209.605 282.511 208.725 256.746 192.29 241.397C189.15 238.464 185.669 236.124 181.985 234.371L190.533 231.892C206.662 227.215 214.212 208.719 205.964 194.091Z" fill="#FFB783"/>
<path fill-rule="evenodd" clip-rule="evenodd" d="M131.739 281.011L131.922 281.616C133.005 285.178 134.693 288.587 136.983 291.681L137.279 292.082L137.283 292.08C138.401 293.546 139.66 294.942 141.06 296.249C154.516 308.816 175.611 308.096 188.178 294.64L193.572 299.678C178.223 316.112 152.457 316.992 136.023 301.643C134.646 300.358 133.379 298.999 132.221 297.579C132.081 297.408 131.943 297.236 131.807 297.063C131.798 297.052 131.79 297.041 131.781 297.03C131.658 296.874 131.536 296.717 131.416 296.559C131.47 296.749 131.525 296.94 131.582 297.13L131.049 296.071C130.893 295.859 130.738 295.646 130.586 295.432C128.02 291.818 126.109 287.872 124.86 283.761L115.712 265.564C105.407 245.067 110.58 220.172 128.199 205.478C131.526 202.703 135.205 200.378 139.14 198.563L172.372 183.234C184.688 177.553 199.302 182.276 205.964 194.091C214.003 208.348 207.035 226.279 191.743 231.51C191.345 231.646 190.942 231.774 190.533 231.892L181.985 234.371C184.904 235.76 187.696 237.518 190.292 239.647C190.972 240.205 191.638 240.788 192.29 241.397C208.725 256.746 209.605 282.511 194.256 298.946L193.572 299.678L188.178 294.64L188.862 293.908C201.428 280.453 200.708 259.357 187.252 246.791C184.672 244.381 181.822 242.467 178.814 241.036L161.275 232.692L188.477 224.804C200.035 221.452 205.445 208.198 199.535 197.716C194.761 189.25 184.289 185.865 175.463 189.936L142.231 205.265C138.885 206.808 135.756 208.786 132.926 211.146C117.942 223.643 113.541 244.816 122.306 262.249L131.739 281.011Z" fill="#292929"/>
</svg>
