<svg width="1109" height="905" viewBox="0 0 1109 905" fill="none" xmlns="http://www.w3.org/2000/svg">
<mask id="path-1-outside-1_1_2045" maskUnits="userSpaceOnUse" x="-10.2448" y="-10.942" width="1131.48" height="926.378" fill="black">
<rect fill="white" x="-10.2448" y="-10.942" width="1131.48" height="926.378"/>
<path fill-rule="evenodd" clip-rule="evenodd" d="M205.932 819.848C270.553 798.673 307.986 710.534 325.868 665.857L326.24 666.004C330.688 654.739 334.391 654.206 338.454 653.879C349.137 653.02 379.247 657.908 436.071 700.309C484.104 736.151 538.412 747.174 587.366 730.004C634.998 713.297 667.896 673.086 680.059 626.603C705.999 527.462 641.53 418.232 491.668 365.026C466.271 356.01 462.619 342.89 462.422 333.708C462.129 320.037 470.233 301.962 486.923 290.508C501.286 280.652 524.192 274.475 556.656 288.897C591.256 304.267 639.247 344.664 690.895 435.584C727.808 500.567 765.618 547.213 804.841 576.219C845.164 606.038 889.527 618.701 933.424 608.622C975.55 598.949 1006.51 570.742 1027.13 541.08C1047.94 511.156 1061.5 475.394 1068 440.691L955.341 419.582C951.343 440.923 943.208 461.001 933.027 475.642C922.662 490.547 913.332 495.632 907.773 496.908C903.983 497.778 893.26 499.048 872.993 484.061C851.627 468.26 823.345 436.689 790.558 378.971C732.251 276.327 668.52 213.168 603.189 184.147C535.723 154.176 470.491 162.77 422.067 196.001C375.971 227.635 346.642 280.964 347.828 336.169C349.11 395.862 385.85 449.088 453.319 473.041C568.8 514.041 574.846 575.9 569.171 597.589C565.526 611.52 557.083 619.159 549.429 621.843C543.097 624.064 528.174 626.021 504.618 608.444C440.587 560.666 382.047 535.383 329.266 539.628C279.616 543.62 247.31 572.113 228.897 604.517C203.091 623.882 187.665 612.882 174.48 603.48C164.401 596.293 155.632 590.04 144.538 599C125.784 614.146 166.866 639.208 189.201 647.19L169.078 659.867C161.283 664.777 158.945 675.076 163.855 682.87C168.202 689.771 176.773 692.395 184.091 689.499L183.098 689.992C174.496 694.264 171.451 705.021 176.539 713.168C180.294 719.182 187.335 721.89 193.879 720.428C189.861 725.693 189.235 733.152 193.034 739.182C197.575 746.39 206.87 748.936 214.45 745.047L241.599 731.121C241.77 731.033 241.94 730.942 242.107 730.849C242.184 730.954 242.261 731.058 242.338 731.161C184.1 791.468 169.344 831.837 205.932 819.848ZM247.125 726.477L250.918 724.088C258.713 719.178 261.051 708.879 256.141 701.084C252.708 695.636 246.643 692.853 240.64 693.349C243.594 688.172 243.668 681.575 240.269 676.18C236.578 670.32 229.841 667.544 223.412 668.613C230.557 663.519 232.566 653.669 227.829 646.15C223.262 638.899 214.031 636.37 206.491 640.005C211.662 640.326 216.611 643.045 219.583 647.764C224.493 655.559 222.155 665.858 214.361 670.768L186.859 688.093C186.773 688.147 186.687 688.2 186.601 688.252L213.664 674.812C220.051 671.639 227.797 673.571 231.946 679.372C236.811 686.172 234.948 695.665 227.873 700.122L215.406 707.976L227.13 702.241C235.04 698.372 244.591 701.552 248.604 709.39C251.517 715.08 250.729 721.691 247.125 726.477Z"/>
</mask>
<path fill-rule="evenodd" clip-rule="evenodd" d="M205.932 819.848C270.553 798.673 307.986 710.534 325.868 665.857L326.24 666.004C330.688 654.739 334.391 654.206 338.454 653.879C349.137 653.02 379.247 657.908 436.071 700.309C484.104 736.151 538.412 747.174 587.366 730.004C634.998 713.297 667.896 673.086 680.059 626.603C705.999 527.462 641.53 418.232 491.668 365.026C466.271 356.01 462.619 342.89 462.422 333.708C462.129 320.037 470.233 301.962 486.923 290.508C501.286 280.652 524.192 274.475 556.656 288.897C591.256 304.267 639.247 344.664 690.895 435.584C727.808 500.567 765.618 547.213 804.841 576.219C845.164 606.038 889.527 618.701 933.424 608.622C975.55 598.949 1006.51 570.742 1027.13 541.08C1047.94 511.156 1061.5 475.394 1068 440.691L955.341 419.582C951.343 440.923 943.208 461.001 933.027 475.642C922.662 490.547 913.332 495.632 907.773 496.908C903.983 497.778 893.26 499.048 872.993 484.061C851.627 468.26 823.345 436.689 790.558 378.971C732.251 276.327 668.52 213.168 603.189 184.147C535.723 154.176 470.491 162.77 422.067 196.001C375.971 227.635 346.642 280.964 347.828 336.169C349.11 395.862 385.85 449.088 453.319 473.041C568.8 514.041 574.846 575.9 569.171 597.589C565.526 611.52 557.083 619.159 549.429 621.843C543.097 624.064 528.174 626.021 504.618 608.444C440.587 560.666 382.047 535.383 329.266 539.628C279.616 543.62 247.31 572.113 228.897 604.517C203.091 623.882 187.665 612.882 174.48 603.48C164.401 596.293 155.632 590.04 144.538 599C125.784 614.146 166.866 639.208 189.201 647.19L169.078 659.867C161.283 664.777 158.945 675.076 163.855 682.87C168.202 689.771 176.773 692.395 184.091 689.499L183.098 689.992C174.496 694.264 171.451 705.021 176.539 713.168C180.294 719.182 187.335 721.89 193.879 720.428C189.861 725.693 189.235 733.152 193.034 739.182C197.575 746.39 206.87 748.936 214.45 745.047L241.599 731.121C241.77 731.033 241.94 730.942 242.107 730.849C242.184 730.954 242.261 731.058 242.338 731.161C184.1 791.468 169.344 831.837 205.932 819.848ZM247.125 726.477L250.918 724.088C258.713 719.178 261.051 708.879 256.141 701.084C252.708 695.636 246.643 692.853 240.64 693.349C243.594 688.172 243.668 681.575 240.269 676.18C236.578 670.32 229.841 667.544 223.412 668.613C230.557 663.519 232.566 653.669 227.829 646.15C223.262 638.899 214.031 636.37 206.491 640.005C211.662 640.326 216.611 643.045 219.583 647.764C224.493 655.559 222.155 665.858 214.361 670.768L186.859 688.093C186.773 688.147 186.687 688.2 186.601 688.252L213.664 674.812C220.051 671.639 227.797 673.571 231.946 679.372C236.811 686.172 234.948 695.665 227.873 700.122L215.406 707.976L227.13 702.241C235.04 698.372 244.591 701.552 248.604 709.39C251.517 715.08 250.729 721.691 247.125 726.477Z" fill="#33A9FF"/>
<path d="M325.868 665.857L328.439 659.346L321.958 656.787L319.369 663.256L325.868 665.857ZM205.932 819.848L203.752 813.196L205.932 819.848ZM326.24 666.004L323.669 672.515L330.179 675.086L332.751 668.575L326.24 666.004ZM338.454 653.879L337.893 646.902L338.454 653.879ZM436.071 700.309L440.257 694.699L436.071 700.309ZM587.366 730.004L589.683 736.609L587.366 730.004ZM680.059 626.603L673.287 624.831L680.059 626.603ZM491.668 365.026L494.01 358.43L491.668 365.026ZM462.422 333.708L469.421 333.557L469.421 333.557L462.422 333.708ZM486.923 290.508L490.884 296.28L486.923 290.508ZM556.656 288.897L553.814 295.294L556.656 288.897ZM690.895 435.584L696.981 432.127L690.895 435.584ZM804.841 576.219L800.679 581.848L804.841 576.219ZM933.424 608.622L931.857 601.8L931.857 601.8L933.424 608.622ZM1027.13 541.08L1021.38 537.084L1027.13 541.08ZM1068 440.691L1074.88 441.98L1076.17 435.1L1069.29 433.811L1068 440.691ZM955.341 419.582L956.631 412.701L949.75 411.412L948.461 418.292L955.341 419.582ZM933.027 475.642L938.774 479.639L938.774 479.639L933.027 475.642ZM907.773 496.908L909.339 503.731L907.773 496.908ZM872.993 484.061L877.155 478.432L877.155 478.432L872.993 484.061ZM790.558 378.971L784.471 382.428L790.558 378.971ZM603.189 184.147L606.031 177.749L603.189 184.147ZM422.067 196.001L426.028 201.773L422.067 196.001ZM347.828 336.169L340.829 336.319L347.828 336.169ZM453.319 473.041L455.661 466.445L455.661 466.445L453.319 473.041ZM569.171 597.589L562.399 595.817L569.171 597.589ZM549.429 621.843L547.112 615.238L547.112 615.238L549.429 621.843ZM504.618 608.444L500.432 614.054L504.618 608.444ZM329.266 539.628L328.705 532.65L329.266 539.628ZM228.897 604.517L233.099 610.116L234.264 609.242L234.983 607.975L228.897 604.517ZM174.48 603.48L170.416 609.179L174.48 603.48ZM144.538 599L140.14 593.554L140.14 593.554L144.538 599ZM189.201 647.19L192.932 653.113L205.11 645.441L191.557 640.598L189.201 647.19ZM169.078 659.867L165.346 653.944L165.346 653.944L169.078 659.867ZM163.855 682.87L169.778 679.139L163.855 682.87ZM184.091 689.499L187.204 695.768L181.514 682.99L184.091 689.499ZM183.098 689.992L186.211 696.261L186.211 696.261L183.098 689.992ZM176.539 713.168L182.476 709.46L176.539 713.168ZM193.879 720.428L199.444 724.674L211.096 709.406L192.352 713.596L193.879 720.428ZM193.034 739.182L187.111 742.913L193.034 739.182ZM214.45 745.047L217.645 751.276L217.645 751.276L214.45 745.047ZM241.599 731.121L244.794 737.349L244.794 737.349L241.599 731.121ZM242.107 730.849L247.74 726.694L244.08 721.731L238.696 724.736L242.107 730.849ZM242.338 731.161L247.373 736.024L251.487 731.764L247.967 727.001L242.338 731.161ZM247.125 726.477L241.534 722.266L250.857 732.4L247.125 726.477ZM250.918 724.088L254.649 730.011L254.649 730.011L250.918 724.088ZM256.141 701.084L250.218 704.815L256.141 701.084ZM240.64 693.349L234.56 689.881L227.977 701.419L241.216 700.325L240.64 693.349ZM240.269 676.18L246.192 672.449L240.269 676.18ZM223.412 668.613L219.349 662.913L224.561 675.518L223.412 668.613ZM227.829 646.15L221.907 649.881L227.829 646.15ZM206.491 640.005L203.451 633.699L179.325 645.331L206.057 646.991L206.491 640.005ZM219.583 647.764L225.506 644.033L219.583 647.764ZM214.361 670.768L210.63 664.845L214.361 670.768ZM186.859 688.093L190.589 694.016L190.59 694.016L186.859 688.093ZM186.601 688.252L182.977 682.263L189.715 694.521L186.601 688.252ZM213.664 674.812L210.55 668.542L213.664 674.812ZM231.946 679.372L226.253 683.445L226.253 683.445L231.946 679.372ZM227.873 700.122L224.142 694.199L227.873 700.122ZM215.406 707.976L211.675 702.053L218.482 714.264L215.406 707.976ZM227.13 702.241L230.206 708.529L227.13 702.241ZM248.604 709.39L242.373 712.58L248.604 709.39ZM319.369 663.256C310.445 685.551 296.827 718.203 277.558 747.851C258.196 777.641 233.794 803.352 203.752 813.196L208.112 826.5C242.691 815.169 269.316 786.223 289.296 755.48C309.369 724.595 323.409 690.839 332.367 668.458L319.369 663.256ZM328.811 659.493L328.439 659.346L323.297 672.368L323.669 672.515L328.811 659.493ZM337.893 646.902C335.702 647.078 331.887 647.377 328.134 650.361C324.704 653.089 322.106 657.414 319.729 663.433L332.751 668.575C334.822 663.33 336.3 661.755 336.848 661.319C337.075 661.138 337.142 661.007 339.015 660.857L337.893 646.902ZM440.257 694.699C382.99 651.967 351.144 645.836 337.893 646.902L339.015 660.857C347.129 660.204 375.504 663.849 431.884 705.919L440.257 694.699ZM585.049 723.398C538.711 739.651 486.808 729.434 440.257 694.699L431.884 705.919C481.4 742.867 538.113 754.697 589.683 736.609L585.049 723.398ZM673.287 624.831C661.641 669.337 630.231 707.551 585.049 723.398L589.683 736.609C639.766 719.043 674.15 676.836 686.831 628.375L673.287 624.831ZM489.326 371.623C637.174 424.113 697.972 530.49 673.287 624.831L686.831 628.375C714.027 524.435 645.887 412.351 494.01 358.43L489.326 371.623ZM455.424 333.858C455.542 339.382 456.732 346.52 461.969 353.594C467.147 360.588 475.749 366.803 489.326 371.623L494.01 358.43C482.19 354.233 476.268 349.379 473.221 345.264C470.234 341.228 469.499 337.216 469.421 333.557L455.424 333.858ZM482.963 284.737C464.46 297.434 455.076 317.67 455.424 333.858L469.421 333.557C469.181 322.404 476.007 306.49 490.884 296.28L482.963 284.737ZM559.498 282.499C524.889 267.125 499.398 273.457 482.963 284.737L490.884 296.28C503.173 287.846 523.496 281.825 553.814 295.294L559.498 282.499ZM696.981 432.127C644.926 340.488 595.973 298.703 559.498 282.499L553.814 295.294C586.539 309.831 633.569 348.839 684.808 439.042L696.981 432.127ZM809.004 570.591C770.871 542.392 733.642 496.665 696.981 432.127L684.808 439.042C721.973 504.468 760.366 552.035 800.679 581.848L809.004 570.591ZM931.857 601.8C890.42 611.314 848.112 599.512 809.004 570.591L800.679 581.848C842.216 612.564 888.633 626.089 934.99 615.445L931.857 601.8ZM1021.38 537.084C1001.38 565.852 971.743 592.641 931.857 601.8L934.99 615.445C979.356 605.257 1011.63 575.631 1032.88 545.077L1021.38 537.084ZM1061.12 439.402C1054.77 473.289 1041.54 508.093 1021.38 537.084L1032.88 545.077C1054.34 514.218 1068.23 477.498 1074.88 441.98L1061.12 439.402ZM954.052 426.462L1066.71 447.571L1069.29 433.811L956.631 412.701L954.052 426.462ZM938.774 479.639C949.603 464.064 958.07 443.029 962.222 420.871L948.461 418.292C944.615 438.817 936.812 457.937 927.279 471.646L938.774 479.639ZM909.339 503.731C917.107 501.947 927.763 495.473 938.774 479.639L927.279 471.646C917.562 485.621 909.558 489.316 906.206 490.086L909.339 503.731ZM868.831 489.689C890.364 505.613 903.141 505.154 909.339 503.731L906.206 490.086C904.825 490.403 896.156 492.484 877.155 478.432L868.831 489.689ZM784.471 382.428C817.51 440.589 846.374 473.082 868.831 489.689L877.155 478.432C856.88 463.439 829.18 432.788 796.645 375.513L784.471 382.428ZM600.347 190.544C663.8 218.731 726.571 280.499 784.471 382.428L796.645 375.513C737.932 272.155 673.239 207.605 606.031 177.749L600.347 190.544ZM426.028 201.773C472.369 169.971 535.016 161.521 600.347 190.544L606.031 177.749C536.43 146.83 468.613 155.569 418.106 190.23L426.028 201.773ZM354.826 336.019C353.695 283.356 381.722 232.178 426.028 201.773L418.106 190.23C370.22 223.092 339.589 278.572 340.829 336.319L354.826 336.019ZM455.661 466.445C390.751 443.4 356.042 392.616 354.826 336.019L340.829 336.319C342.178 399.107 380.949 454.776 450.977 479.638L455.661 466.445ZM575.943 599.361C579.288 586.577 578.841 563.658 562.537 538.725C546.223 513.778 514.371 487.289 455.661 466.445L450.977 479.638C507.748 499.793 536.659 524.733 550.82 546.388C564.99 568.056 564.729 586.912 562.399 595.817L575.943 599.361ZM551.746 628.449C561.801 624.922 571.766 615.325 575.943 599.361L562.399 595.817C559.286 607.715 552.365 613.396 547.112 615.238L551.746 628.449ZM500.432 614.054C525.526 632.779 542.856 631.567 551.746 628.449L547.112 615.238C543.339 616.561 530.821 619.262 508.804 602.834L500.432 614.054ZM329.827 546.605C380.036 542.567 436.84 566.603 500.432 614.054L508.804 602.834C444.335 554.729 384.058 528.199 328.705 532.65L329.827 546.605ZM234.983 607.975C252.502 577.145 282.952 550.375 329.827 546.605L328.705 532.65C276.279 536.866 242.118 567.082 222.811 601.059L234.983 607.975ZM170.416 609.179C176.795 613.728 185.211 619.865 195.767 621.684C206.851 623.594 219.067 620.645 233.099 610.116L224.696 598.918C212.922 607.753 204.522 608.987 198.145 607.888C191.239 606.697 185.35 602.634 178.544 597.781L170.416 609.179ZM148.936 604.446C152.835 601.298 155.489 601.229 158.02 601.931C161.426 602.875 165.073 605.37 170.416 609.179L178.544 597.781C173.808 594.404 168.032 590.178 161.76 588.439C154.613 586.458 147.336 587.743 140.14 593.554L148.936 604.446ZM191.557 640.598C181.007 636.828 165.945 628.949 156.008 620.459C150.927 616.119 148.037 612.329 147.092 609.547C146.675 608.317 146.729 607.558 146.876 607.054C147.024 606.548 147.459 605.639 148.936 604.446L140.14 593.554C136.929 596.148 134.545 599.336 133.437 603.13C132.328 606.927 132.69 610.673 133.835 614.047C136.017 620.474 141.277 626.288 146.914 631.104C158.413 640.927 175.06 649.57 186.846 653.782L191.557 640.598ZM185.47 641.267L165.346 653.944L172.809 665.79L192.932 653.113L185.47 641.267ZM165.346 653.944C154.281 660.915 150.962 675.536 157.932 686.602L169.778 679.139C166.928 674.616 168.285 668.639 172.809 665.79L165.346 653.944ZM157.932 686.602C164.108 696.405 176.275 700.121 186.667 696.007L181.514 682.99C177.272 684.669 172.297 683.138 169.778 679.139L157.932 686.602ZM180.977 683.229L179.984 683.722L186.211 696.261L187.204 695.768L180.977 683.229ZM179.984 683.722C167.679 689.834 163.324 705.222 170.601 716.876L182.476 709.46C179.579 704.821 181.312 698.694 186.211 696.261L179.984 683.722ZM170.601 716.876C175.98 725.488 186.056 729.349 195.406 727.259L192.352 713.596C188.615 714.432 184.609 712.875 182.476 709.46L170.601 716.876ZM188.314 716.181C182.6 723.668 181.688 734.304 187.111 742.913L198.956 735.451C196.783 732.001 197.121 727.718 199.444 724.674L188.314 716.181ZM187.111 742.913C193.585 753.19 206.837 756.82 217.645 751.276L211.255 738.819C206.902 741.052 201.564 739.59 198.956 735.451L187.111 742.913ZM217.645 751.276L244.794 737.349L238.404 724.893L211.255 738.819L217.645 751.276ZM244.794 737.349C245.038 737.224 245.28 737.094 245.518 736.962L238.696 724.736C238.6 724.79 238.503 724.842 238.404 724.893L244.794 737.349ZM247.967 727.001C247.892 726.899 247.816 726.797 247.74 726.694L236.473 735.004C236.552 735.11 236.63 735.216 236.708 735.322L247.967 727.001ZM203.752 813.196C199.574 814.565 196.654 815.002 194.777 814.955C192.931 814.909 192.817 814.438 193.101 814.741C193.381 815.039 192.951 814.921 193.012 813.208C193.075 811.471 193.64 808.835 195.083 805.195C200.944 790.409 218.365 766.063 247.373 736.024L237.302 726.299C208.073 756.566 188.997 782.558 182.068 800.036C180.313 804.463 179.163 808.763 179.021 812.706C178.879 816.673 179.758 820.979 182.889 824.318C186.025 827.662 190.306 828.848 194.429 828.951C198.521 829.053 203.143 828.128 208.112 826.5L203.752 813.196ZM250.857 732.4L254.649 730.011L247.187 718.165L243.394 720.554L250.857 732.4ZM254.649 730.011C265.715 723.04 269.034 708.419 262.063 697.353L250.218 704.815C253.067 709.339 251.71 715.315 247.187 718.165L254.649 730.011ZM262.063 697.353C257.185 689.61 248.566 685.67 240.063 686.373L241.216 700.325C244.72 700.036 248.231 701.662 250.218 704.815L262.063 697.353ZM246.72 696.818C250.903 689.485 251.023 680.117 246.192 672.449L234.346 679.911C236.314 683.034 236.284 686.858 234.56 689.881L246.72 696.818ZM246.192 672.449C240.946 664.121 231.376 660.193 222.264 661.708L224.561 675.518C228.306 674.895 232.21 676.519 234.346 679.911L246.192 672.449ZM227.476 674.313C237.625 667.077 240.478 653.095 233.752 642.419L221.907 649.881C224.654 654.242 223.49 659.961 219.349 662.913L227.476 674.313ZM233.752 642.419C227.265 632.121 214.162 628.536 203.451 633.699L209.531 646.31C213.9 644.204 219.258 645.677 221.907 649.881L233.752 642.419ZM225.506 644.033C221.283 637.329 214.246 633.473 206.925 633.018L206.057 646.991C209.078 647.179 211.938 648.761 213.661 651.495L225.506 644.033ZM218.092 676.691C229.157 669.72 232.477 655.099 225.506 644.033L213.661 651.495C216.51 656.019 215.153 661.996 210.63 664.845L218.092 676.691ZM190.59 694.016L218.092 676.691L210.63 664.845L183.128 682.17L190.59 694.016ZM190.226 694.24C190.348 694.166 190.469 694.091 190.589 694.016L183.128 682.17C183.077 682.202 183.027 682.233 182.977 682.263L190.226 694.24ZM210.55 668.542L183.488 681.982L189.715 694.521L216.777 681.081L210.55 668.542ZM237.64 675.299C231.491 666.705 220.014 663.842 210.55 668.542L216.777 681.081C220.088 679.437 224.102 680.438 226.253 683.445L237.64 675.299ZM231.604 706.045C242.087 699.441 244.848 685.376 237.64 675.299L226.253 683.445C228.774 686.969 227.809 691.889 224.142 694.199L231.604 706.045ZM219.137 713.898L231.604 706.045L224.142 694.199L211.675 702.053L219.137 713.898ZM224.054 695.953L212.33 701.688L218.482 714.264L230.206 708.529L224.054 695.953ZM254.835 706.2C249.083 694.965 235.392 690.407 224.054 695.953L230.206 708.529C234.688 706.337 240.099 708.138 242.373 712.58L254.835 706.2ZM252.717 730.688C257.872 723.842 259.015 714.366 254.835 706.2L242.373 712.58C244.019 715.794 243.586 719.54 241.534 722.266L252.717 730.688Z" fill="#292929" mask="url(#path-1-outside-1_1_2045)"/>
</svg>
