<svg width="284" height="265" viewBox="0 0 284 265" fill="none" xmlns="http://www.w3.org/2000/svg">
<path d="M27.1799 136.908C41.821 190.83 94.1698 207.464 133.757 224.336C147.722 230.283 161.125 235.823 172.207 232.814C183.288 229.805 192.052 218.259 201.086 206.043C226.72 171.485 263.453 130.652 248.815 76.7411C234.174 22.8193 162.841 1.12516 127.052 66.5137C63.1039 28.1943 12.5389 82.9866 27.1799 136.908Z" fill="#292929"/>
<path d="M189.21 193.847L189.206 193.851C184.665 199.992 180.362 205.725 175.865 210.303C171.366 214.882 166.949 218.012 162.3 219.274C157.652 220.536 152.259 220.068 146.06 218.393C139.864 216.717 133.253 213.95 126.23 210.96C122.415 209.334 118.511 207.721 114.555 206.086C97.7222 199.13 79.9536 191.788 64.1549 181.443C44.8002 168.77 28.763 151.792 21.74 125.927C14.776 100.279 23.3592 74.5882 41.0207 59.8911C58.4876 45.356 85.4066 41.1393 116.229 59.6086L119.475 61.554L121.293 58.2339C138.542 26.718 163.898 16.7434 186.318 20.4498C208.988 24.1975 229.386 42.0195 236.35 67.6675C243.372 93.5273 238.126 116.284 227.84 137.004C219.429 153.946 207.786 169.29 196.761 183.82C194.194 187.203 191.661 190.542 189.21 193.847Z" fill="#BFD3DF" stroke="#292929" stroke-width="7.27977"/>
<path fill-rule="evenodd" clip-rule="evenodd" d="M19.0236 129.652C18.7471 128.738 18.4817 127.814 18.2277 126.878C17.3781 123.75 16.7481 120.618 16.3275 117.501L235.018 53.8159C236.812 57.4857 238.322 61.3698 239.507 65.444L19.0236 129.652ZM33.4764 158.326C30.9242 154.924 28.5726 151.302 26.4554 147.435L242.94 84.3922C243.274 88.7883 243.28 93.0932 242.997 97.3111L33.4764 158.326ZM59.331 182.586C55.122 179.688 51.0716 176.565 47.2425 173.171L239.505 117.181C238.11 122.116 236.364 126.926 234.346 131.619L59.331 182.586ZM101.068 204.4C95.2833 201.936 89.4407 199.345 83.6669 196.532L220.792 156.599C217.212 162.163 213.416 167.557 209.574 172.801L101.068 204.4ZM215.782 29.8223C219.469 32.7415 222.89 36.0794 225.968 39.7912L16.0332 100.927C16.5069 96.1988 17.4551 91.5908 18.8383 87.1749L215.782 29.8223Z" fill="#D6E7E8"/>
<path d="M189.207 193.851L189.21 193.847C191.661 190.542 194.195 187.203 196.761 183.82C207.786 169.29 219.429 153.946 227.84 137.004C238.126 116.284 243.372 93.5273 236.35 67.6675C229.386 42.0195 208.988 24.1975 186.318 20.4498C163.898 16.7434 138.542 26.718 121.293 58.2339L119.475 61.554L116.229 59.6086C85.4066 41.1393 58.4876 45.356 41.0207 59.8911C23.3592 74.5882 14.776 100.279 21.74 125.927C28.763 151.792 44.8002 168.77 64.1549 181.443C79.9536 191.788 97.7222 199.13 114.555 206.086C118.511 207.721 122.416 209.334 126.231 210.96M189.207 193.851L126.231 210.96M189.207 193.851C184.665 199.992 180.362 205.725 175.865 210.303C171.366 214.882 166.949 218.012 162.3 219.274C157.652 220.536 152.259 220.068 146.06 218.393M189.207 193.851L146.06 218.393M126.231 210.96C133.253 213.951 139.864 216.717 146.06 218.393M126.231 210.96L146.06 218.393" stroke="#292929" stroke-width="7.27977"/>
</svg>
