<svg width="283" height="286" viewBox="0 0 283 286" fill="none" xmlns="http://www.w3.org/2000/svg">
<path d="M165.281 126.855L255.48 63.8413L256.946 62.8168L255.982 61.3095L239.884 36.1309L238.709 34.2919L237.077 35.7413L160.133 104.076L134.746 115.809L64.6312 117.47L62.3183 117.524L62.8642 119.773L69.6137 147.567L69.9509 148.955L71.3793 148.99L157.631 151.097L97.4004 187.776L7.36648 216.835L5.89503 217.31L6.09007 218.844L9.13832 242.816L9.44002 245.189L11.667 244.316C47.8441 230.144 103.809 207.636 154.136 186.17C179.299 175.437 203.065 164.96 222.248 155.911C241.371 146.892 256.105 139.218 263.073 134.096L263.552 133.745L263.739 133.181L272.59 106.474L273.867 102.621L270.112 104.164L210.492 128.667L165.281 126.855Z" fill="#292929" stroke="#292929" stroke-width="3.72754"/>
<path d="M63.4721 117.258L64.9698 124.357L144.879 126.309L2.68449 212.901L5.98292 219.555C42.1717 205.378 98.1551 182.863 148.504 161.388C173.676 150.651 197.466 140.163 216.68 131.1C235.771 122.096 250.674 114.348 257.813 109.102L266.389 102.8L255.755 102.373L164.155 98.7034L244.289 40.2294L240.503 33.8463L63.4721 117.258Z" fill="#FFCC33" stroke="#292929" stroke-width="7.45507"/>
</svg>
