<svg width="296" height="306" viewBox="0 0 296 306" fill="none" xmlns="http://www.w3.org/2000/svg">
<path d="M145.491 28.3875C148.997 23.586 156.162 23.586 159.668 28.3875L174.63 48.88C177.143 52.3216 181.765 53.4608 185.59 51.5812L208.362 40.3895C213.697 37.7673 220.042 41.097 220.914 46.9777L224.64 72.0764C225.266 76.2916 228.829 79.4482 233.089 79.5612L258.453 80.2343C264.396 80.392 268.467 86.2885 266.507 91.9013L258.141 115.856C256.736 119.879 258.425 124.33 262.144 126.41L284.291 138.794C289.48 141.695 290.343 148.808 285.999 152.867L267.46 170.191C264.346 173.1 263.772 177.826 266.099 181.396L279.954 202.653C283.2 207.633 280.66 214.332 274.927 215.908L250.461 222.631C246.351 223.761 243.647 227.678 244.049 231.921L246.438 257.182C246.998 263.1 241.635 267.852 235.827 266.582L211.038 261.166C206.875 260.256 202.66 262.468 201.043 266.411L191.42 289.889C189.165 295.39 182.208 297.105 177.655 293.282L158.223 276.965C154.96 274.225 150.199 274.225 146.936 276.965L127.504 293.282C122.951 297.105 115.994 295.39 113.739 289.889L104.115 266.411C102.499 262.468 98.2841 260.256 94.121 261.166L69.3323 266.582C63.5241 267.852 58.1612 263.1 58.721 257.182L61.1103 231.921C61.5116 227.678 58.8074 223.761 54.6984 222.631L30.2317 215.908C24.4991 214.332 21.9584 207.633 25.2047 202.653L39.0596 181.396C41.3865 177.826 40.8127 173.1 37.6991 170.19L19.1596 152.867C14.8157 148.808 15.6794 141.695 20.8684 138.794L43.015 126.41C46.7344 124.33 48.4224 119.879 47.0175 115.856L38.6523 91.9013C36.6924 86.2885 40.7624 80.3919 46.7055 80.2343L72.0702 79.5612C76.3301 79.4482 79.8933 76.2915 80.5189 72.0763L84.2444 46.9777C85.1173 41.0969 91.4614 37.7673 96.7971 40.3895L119.569 51.5812C123.394 53.4608 128.016 52.3216 130.529 48.88L145.491 28.3875Z" fill="#292929"/>
<path d="M153.14 8.30994C148.362 1.76609 138.597 1.76608 133.819 8.30993L118.857 28.8024C117.256 30.9951 114.311 31.7209 111.874 30.5234L89.1022 19.3317C81.8304 15.7579 73.1841 20.2958 71.9944 28.3106L68.2689 53.4093C67.8703 56.0948 65.6002 58.106 62.8861 58.178L37.5214 58.851C29.4217 59.0659 23.8746 67.1022 26.5459 74.7518L34.9111 98.7069C35.8062 101.27 34.7307 104.106 32.361 105.431L10.2144 117.814C3.14235 121.769 1.96531 131.462 7.88552 136.994L26.425 154.318C28.4087 156.172 28.7743 159.182 27.2918 161.457L13.4369 182.714C9.01262 189.502 12.4753 198.632 20.2882 200.779L44.7548 207.503C47.3727 208.223 49.0956 210.719 48.8399 213.421L46.4507 238.682C45.6877 246.749 52.9968 253.224 60.9126 251.494L85.7013 246.078C88.3537 245.498 91.0392 246.908 92.0689 249.42L101.693 272.897C104.766 280.395 114.247 282.732 120.452 277.521L139.884 261.205C141.963 259.459 144.996 259.459 147.076 261.205L166.508 277.521C172.713 282.732 182.194 280.395 185.267 272.898L194.891 249.42C195.921 246.908 198.606 245.498 201.258 246.078L226.047 251.494C233.963 253.224 241.272 246.749 240.509 238.682L238.12 213.421C237.864 210.719 239.587 208.223 242.205 207.503L266.672 200.779C274.484 198.632 277.947 189.502 273.523 182.714L259.668 161.457C258.185 159.182 258.551 156.172 260.535 154.318L279.074 136.994C284.994 131.462 283.817 121.769 276.745 117.814L254.599 105.431C252.229 104.106 251.154 101.27 252.049 98.7069L260.414 74.7518C263.085 67.1022 257.538 59.0659 249.438 58.851L224.074 58.178C221.36 58.106 219.089 56.0948 218.691 53.4093L214.965 28.3106C213.776 20.2958 205.129 15.7579 197.857 19.3317L175.085 30.5234C172.649 31.7209 169.704 30.9951 168.103 28.8024L153.14 8.30994Z" fill="#FFBF00" stroke="#292929" stroke-width="6.3698"/>
<path fill-rule="evenodd" clip-rule="evenodd" d="M125.93 24.5146C123.377 33.7424 114.92 40.5176 104.88 40.5176C93.7072 40.5176 84.4944 32.1285 83.1966 21.3058C84.6832 21.1965 86.2285 21.4673 87.6973 22.1892L110.469 33.3809C114.294 35.2605 118.916 34.1213 121.429 30.6796L125.93 24.5146ZM160.628 23.9655C159.307 26.78 158.568 29.9227 158.568 33.2378C158.568 45.2994 168.346 55.0772 180.407 55.0772C192.469 55.0772 202.246 45.2994 202.246 33.2378C202.246 29.2086 201.155 25.4342 199.252 22.194L176.49 33.3809C172.666 35.2605 168.044 34.1213 165.531 30.6796L160.628 23.9655ZM255.639 78.7636C252.946 77.5759 249.967 76.9165 246.835 76.9165C234.774 76.9165 224.996 86.6943 224.996 98.7558C224.996 110.817 234.774 120.595 246.835 120.595C253.134 120.595 258.81 117.929 262.796 113.663L253.044 108.21C249.325 106.13 247.637 101.679 249.042 97.656L255.639 78.7636ZM272.069 187.308C268.529 184.834 264.221 183.383 259.575 183.383C247.513 183.383 237.735 193.161 237.735 205.223C237.735 205.622 237.746 206.019 237.767 206.413C238.765 205.501 239.984 204.81 241.361 204.431L265.827 197.708C270.514 196.42 273.068 191.707 272.069 187.308ZM221.12 247.157C223.006 243.928 224.086 240.171 224.086 236.162C224.086 224.1 214.308 214.322 202.246 214.322C190.185 214.322 180.407 224.1 180.407 236.162C180.407 243.504 184.031 250 189.587 253.96L191.944 248.211C193.56 244.268 197.775 242.056 201.938 242.965L221.12 247.157ZM98.5517 256.837C99.1167 254.896 99.4197 252.844 99.4197 250.721C99.4197 238.66 89.6419 228.882 77.5803 228.882C66.3597 228.882 57.1155 237.344 55.8811 248.234C57.2368 248.635 58.7196 248.713 60.2325 248.382L85.0213 242.965C89.1844 242.056 93.3995 244.268 95.0157 248.211L98.5517 256.837ZM28.9243 111.001C32.9069 115.227 38.556 117.865 44.8214 117.865C56.8829 117.865 66.6607 108.087 66.6607 96.0259C66.6607 83.9644 56.8829 74.1866 44.8214 74.1866C39.7368 74.1866 35.058 75.9242 31.3465 78.838L37.9178 97.656C39.3227 101.679 37.6347 106.13 33.9153 108.21L28.9243 111.001ZM121.259 98.7558C133.321 98.7558 143.098 88.978 143.098 76.9165C143.098 64.855 133.321 55.0772 121.259 55.0772C109.197 55.0772 99.4197 64.855 99.4197 76.9165C99.4197 88.978 109.197 98.7558 121.259 98.7558ZM180.407 120.595C192.469 120.595 202.246 110.817 202.246 98.7558C202.246 86.6943 192.469 76.9165 180.407 76.9165C168.346 76.9165 158.568 86.6943 158.568 98.7558C158.568 110.817 168.346 120.595 180.407 120.595ZM143.098 139.705C143.098 151.766 133.321 161.544 121.259 161.544C109.197 161.544 99.4197 151.766 99.4197 139.705C99.4197 127.643 109.197 117.865 121.259 117.865C133.321 117.865 143.098 127.643 143.098 139.705ZM195.877 183.383C207.938 183.383 217.716 173.605 217.716 161.544C217.716 149.482 207.938 139.705 195.877 139.705C183.815 139.705 174.037 149.482 174.037 161.544C174.037 173.605 183.815 183.383 195.877 183.383ZM61.2009 192.483C73.2624 192.483 83.0402 182.705 83.0402 170.644C83.0402 158.582 73.2624 148.804 61.2009 148.804C49.1393 148.804 39.3615 158.582 39.3615 170.644C39.3615 182.705 49.1393 192.483 61.2009 192.483ZM152.198 214.322C152.198 226.384 142.42 236.162 130.359 236.162C118.297 236.162 108.519 226.384 108.519 214.322C108.519 202.261 118.297 192.483 130.359 192.483C142.42 192.483 152.198 202.261 152.198 214.322Z" fill="#DD9914"/>
<path d="M153.14 8.30994C148.362 1.76609 138.597 1.76608 133.819 8.30993L118.857 28.8024C117.256 30.9951 114.311 31.7209 111.874 30.5234L89.1022 19.3317C81.8304 15.7579 73.1841 20.2958 71.9944 28.3106L68.2689 53.4093C67.8703 56.0948 65.6002 58.106 62.8861 58.178L37.5214 58.851C29.4217 59.0659 23.8746 67.1022 26.5459 74.7518L34.9111 98.7069C35.8062 101.27 34.7307 104.106 32.361 105.431L10.2144 117.814C3.14235 121.769 1.96531 131.462 7.88552 136.994L26.425 154.318C28.4087 156.172 28.7743 159.182 27.2918 161.457L13.4369 182.714C9.01262 189.502 12.4753 198.632 20.2882 200.779L44.7548 207.503C47.3727 208.223 49.0956 210.719 48.8399 213.421L46.4507 238.682C45.6877 246.749 52.9968 253.224 60.9126 251.494L85.7013 246.078C88.3537 245.498 91.0392 246.908 92.0689 249.42L101.693 272.897C104.766 280.395 114.247 282.732 120.452 277.521L139.884 261.205C141.963 259.459 144.996 259.459 147.076 261.205L166.508 277.521C172.713 282.732 182.194 280.395 185.267 272.898L194.891 249.42C195.921 246.908 198.606 245.498 201.258 246.078L226.047 251.494C233.963 253.224 241.272 246.749 240.509 238.682L238.12 213.421C237.864 210.719 239.587 208.223 242.205 207.503L266.672 200.779C274.484 198.632 277.947 189.502 273.523 182.714L259.668 161.457C258.185 159.182 258.551 156.172 260.535 154.318L279.074 136.994C284.994 131.462 283.817 121.769 276.745 117.814L254.599 105.431C252.229 104.106 251.154 101.27 252.049 98.7069L260.414 74.7518C263.085 67.1022 257.538 59.0659 249.438 58.851L224.074 58.178C221.36 58.106 219.089 56.0948 218.691 53.4093L214.965 28.3106C213.776 20.2958 205.129 15.7579 197.857 19.3317L175.085 30.5234C172.649 31.7209 169.704 30.9951 168.103 28.8024L153.14 8.30994Z" stroke="#292929" stroke-width="6.3698"/>
</svg>
